<?xml version="1.0" standalone="no"?>
<!DOCTYPE svg PUBLIC "-//W3C//DTD SVG 20010904//EN"
 "http://www.w3.org/TR/2001/REC-SVG-20010904/DTD/svg10.dtd">
<svg version="1.0" xmlns="http://www.w3.org/2000/svg"
 width="400.000000pt" height="400.000000pt" viewBox="0 0 400.000000 400.000000"
 preserveAspectRatio="xMidYMid meet">
<metadata>
Created by potrace 1.14, written by Peter Selinger 2001-2017
</metadata>
<g transform="translate(0.000000,400.000000) scale(0.100000,-0.100000)"
fill="#000000" stroke="none">
<path d="M592 3190 c-45 -18 -57 -70 -56 -235 1 -180 20 -262 90 -402 43 -86
94 -147 148 -178 18 -10 18 -14 -2 -105 -114 -529 -120 -803 -21 -1043 16 -38
29 -75 29 -81 -1 -6 -30 -29 -66 -51 -36 -22 -70 -45 -75 -51 -21 -25 203
-267 349 -378 62 -48 65 -48 103 -37 56 17 121 70 144 118 33 69 45 56 45 -51
0 -51 3 -121 7 -156 5 -55 9 -63 32 -71 14 -6 37 -28 51 -50 13 -22 52 -70 86
-107 l61 -67 26 31 c14 17 43 43 65 57 l39 28 94 -15 c52 -8 128 -17 169 -20
l75 -6 -50 28 c-183 101 -276 202 -291 316 l-7 47 109 -8 c136 -9 472 -7 583
5 l83 8 -5 -53 c-3 -31 -16 -72 -31 -97 -34 -59 -123 -138 -215 -191 -75 -44
-75 -45 -40 -45 20 0 80 7 135 15 95 14 100 14 141 -6 23 -11 58 -39 79 -61
l37 -42 59 63 c32 34 75 88 96 119 20 31 45 64 55 72 16 13 20 38 25 164 l7
149 65 27 c219 89 379 256 449 469 61 188 48 469 -41 848 -12 51 -19 95 -16
98 3 3 41 -3 84 -14 134 -33 227 -44 341 -39 161 8 212 43 179 122 -30 72
-112 181 -203 271 -98 97 -160 139 -275 187 -95 40 -235 50 -334 23 l-65 -17
-60 26 c-132 60 -318 113 -511 145 -371 63 -895 14 -1106 -104 -25 -14 -45
-24 -46 -23 -18 49 -116 153 -201 213 -86 61 -211 121 -301 145 -87 22 -90 23
-122 10z m1549 -1005 c68 -69 126 -129 129 -133 3 -5 39 -13 81 -20 259 -39
472 -169 559 -341 74 -148 78 -367 9 -503 -27 -54 -99 -130 -159 -168 -123
-79 -344 -126 -633 -136 -498 -17 -826 57 -972 218 -149 165 -151 474 -4 664
97 126 297 230 508 265 l71 12 132 133 c73 74 137 134 144 134 7 0 67 -56 135
-125z"/>
<path d="M1545 1455 c-19 -18 -25 -35 -25 -65 0 -55 34 -90 88 -90 90 0 125
112 53 167 -28 22 -89 16 -116 -12z m113 -39 c2 -10 -2 -22 -9 -26 -20 -13
-39 0 -39 27 0 20 4 24 22 21 13 -2 24 -11 26 -22z m-58 -45 c0 -6 -4 -13 -10
-16 -5 -3 -10 1 -10 9 0 9 5 16 10 16 6 0 10 -4 10 -9z"/>
<path d="M2339 1451 c-61 -61 -21 -150 67 -151 68 0 107 60 80 124 -26 62 -99
75 -147 27z m69 -39 c4 -28 -24 -40 -45 -19 -14 13 -14 19 -3 32 18 22 44 15
48 -13z m32 -47 c0 -8 -4 -15 -10 -15 -5 0 -10 7 -10 15 0 8 5 15 10 15 6 0
10 -7 10 -15z"/>
<path d="M1934 1341 c-12 -5 -24 -16 -27 -25 -8 -20 27 -62 59 -70 17 -5 24
-12 22 -24 -4 -23 -76 -30 -84 -8 -7 17 -34 22 -34 7 0 -33 68 -60 111 -44 15
6 33 7 40 2 37 -23 119 3 119 37 0 19 -26 18 -34 -2 -8 -22 -80 -15 -84 8 -2
11 8 20 33 28 44 15 65 55 41 79 -18 18 -129 26 -162 12z m104 -23 c-3 -7 -17
-13 -33 -13 -16 0 -30 6 -32 13 -3 8 7 12 32 12 25 0 35 -4 33 -12z"/>
<path d="M3060 818 c-78 -12 -171 -60 -219 -115 -39 -44 -93 -174 -79 -189 9
-8 160 84 250 152 75 58 168 143 168 155 0 8 -48 7 -120 -3z"/>
</g>
</svg>
